<svg xmlns="http://www.w3.org/2000/svg" xmlns:xlink="http://www.w3.org/1999/xlink" width="691" height="225" viewBox="0 0 691 225">
  <defs>
    <clipPath id="clip-Artboard_1">
      <rect width="691" height="225"/>
    </clipPath>
  </defs>
  <g id="Artboard_1" data-name="Artboard – 1" clip-path="url(#clip-Artboard_1)">
    <rect width="691" height="225" fill="#fff"/>
    <g id="Group_20" data-name="Group 20" transform="translate(25.073 42.671)">
      <path id="Path_3" data-name="Path 3" d="M152.362,85.627c7.809,0,11.244-4.673,13.947-4.673,1.533,0,2.551,1.169,2.551,2.993,0,3.287-7.372,7.229-16.5,7.229-15.043,0-22.779-12.925-22.779-26.43s7.736-26.43,23.142-26.43c9.2,0,15.043,4.964,15.043,7.593a2.781,2.781,0,0,1-2.625,3.067c-2.924,0-4.383-5.111-12.418-5.111-11.534,0-16.281,10.954-16.281,20.881s4.894,20.881,15.918,20.881" transform="translate(225.386 4.075)" fill="#231f20"/>
      <path id="Path_4" data-name="Path 4" d="M145.848,87.308c0,2.556-1.239,3.868-3.209,3.868s-3.214-1.312-3.214-3.868V42.184c0-2.556,1.243-3.868,3.214-3.868s3.209,1.312,3.209,3.868V61.9h27.383V42.184c0-2.556,1.239-3.868,3.214-3.868s3.21,1.312,3.21,3.868V87.308c0,2.556-1.239,3.868-3.21,3.868s-3.214-1.312-3.214-3.868V67.449H145.848Z" transform="translate(258.173 4.075)" fill="#231f20"/>
      <path id="Path_5" data-name="Path 5" d="M155.643,88.768a3.159,3.159,0,0,1-3.14,2.408,2.794,2.794,0,0,1-3.067-2.7,13.632,13.632,0,0,1,.879-3.21l16.134-43.006c.806-2.261,2.118-3.942,4.6-3.942s3.8,1.681,4.6,3.942l16.134,43.006a13.633,13.633,0,0,1,.875,3.21,2.79,2.79,0,0,1-3.062,2.7,3.164,3.164,0,0,1-3.145-2.408l-3.357-9.347H159Zm15.48-43.006h-.147L160.97,73.872h20.154Z" transform="translate(291.523 4.075)" fill="#231f20"/>
      <path id="Path_6" data-name="Path 6" d="M166.8,88.4c-.294,2.261-1.754,2.772-3.435,2.772-1.971,0-2.993-1.312-2.993-3.287a18.759,18.759,0,0,1,.364-2.919l7.082-41.763c.658-3.651,2.7-4.89,5.037-4.89,2.555,0,3.946.949,4.678,3.361l11.1,38.038h.143l11.1-38.038c.732-2.413,2.114-3.361,4.673-3.361,2.335,0,4.379,1.239,5.037,4.89l7.082,41.763a18.242,18.242,0,0,1,.364,2.919c0,1.975-1.022,3.287-2.993,3.287-1.681,0-3.14-.511-3.43-2.772l-6.06-41.763H204.4L191.993,88.547c-.658,2.118-1.828,2.629-3.287,2.629s-2.629-.511-3.287-2.629L173.009,46.641h-.152Z" transform="translate(327.961 4.075)" fill="#231f20"/>
      <path id="Path_7" data-name="Path 7" d="M180.787,87.409a3.219,3.219,0,1,1-6.423,0V41.921a3.161,3.161,0,0,1,3.426-3.5h12.7c10.443,0,16.866,7.3,16.866,16.355S200.2,70.98,190.715,70.98h-9.927Zm0-21.977h9.49a10.358,10.358,0,0,0,10.659-10.659c0-5.111-2.919-10.807-10.95-10.807h-9.2Z" transform="translate(374.567 4.411)" fill="#231f20"/>
      <path id="Path_8" data-name="Path 8" d="M108.553,45.513c0,2.85-1.9,5.406-4.886,5.406s-5.336-2.192-9.711-2.192c-3.14,0-5.99,1.681-5.99,4.747,0,7.519,24.385,2.7,24.385,21.54,0,10.439-8.615,16.936-18.69,16.936-5.622,0-17.741-1.312-17.741-8.178a4.872,4.872,0,0,1,4.89-5.185c3.43,0,7.519,2.85,12.266,2.85,4.821,0,7.446-2.7,7.446-6.28,0-8.615-24.385-3.43-24.385-20.37,0-10.222,8.4-16.572,18.109-16.572,4.084,0,14.306,1.533,14.306,7.3" transform="translate(46.619 3.738)" fill="#231f20"/>
      <path id="Path_9" data-name="Path 9" d="M84.819,65.082c0-15.186,10.222-26.867,25.117-26.867,14.675,0,25.117,12.045,25.117,26.867,0,15.112-10.153,26.867-25.117,26.867-14.822,0-25.117-11.755-25.117-26.867m38.839,0c0-8.836-4.6-16.793-13.722-16.793s-13.73,7.957-13.73,16.793c0,8.905,4.457,16.793,13.73,16.793s13.722-7.887,13.722-16.793" transform="translate(76.261 3.738)" fill="#231f20"/>
      <path id="Path_10" data-name="Path 10" d="M122.087,38.215c5.332,0,15.7,1.75,15.7,8.178a4.636,4.636,0,0,1-4.531,4.89c-2.989,0-5.042-2.556-11.171-2.556-9.053,0-13.73,7.667-13.73,16.576,0,8.684,4.747,16.134,13.73,16.134,6.129,0,8.619-3.071,11.612-3.071,3.279,0,4.816,3.292,4.816,4.968,0,7.008-11.028,8.615-16.429,8.615-14.822,0-25.117-11.755-25.117-26.867,0-15.186,10.222-26.867,25.117-26.867" transform="translate(116.74 3.738)" fill="#231f20"/>
      <path id="Path_11" data-name="Path 11" d="M107.875,44.012c0-3.651,2.33-5.7,5.475-5.7s5.475,2.044,5.475,5.7V85.48c0,3.651-2.335,5.7-5.475,5.7s-5.475-2.044-5.475-5.7Z" transform="translate(153.069 4.075)" fill="#231f20"/>
      <path id="Path_12" data-name="Path 12" d="M126.465,44.275c1.243-3.361,4.089-6.06,7.814-6.06,3.868,0,6.571,2.555,7.814,6.06L156.4,83.993a8.525,8.525,0,0,1,.585,2.7,4.865,4.865,0,0,1-5.042,4.816,5.125,5.125,0,0,1-5.332-3.794l-2.192-6.865H124.13l-2.192,6.792a5.072,5.072,0,0,1-5.258,3.868,5.24,5.24,0,0,1-5.4-5.111,6.23,6.23,0,0,1,.511-2.408Zm.806,26.5h13.873L134.352,49.6H134.2Z" transform="translate(164.409 3.738)" fill="#231f20"/>
      <path id="Path_13" data-name="Path 13" d="M122.571,44.012c0-3.651,2.335-5.7,5.475-5.7s5.479,2.044,5.479,5.7V80.664h12.994a4.956,4.956,0,0,1,5.258,5.254,5.116,5.116,0,0,1-5.258,4.821H128.262c-3.578,0-5.691-2.335-5.691-5.99Z" transform="translate(202.026 4.075)" fill="#231f20"/>
      <path id="Path_14" data-name="Path 14" d="M104.682,60.794l.022,20.227H72.114V48.433l20.9.013,10.309-10.252c-.407-.052-2.291.022-2.707.022l-28.5.03A10.187,10.187,0,0,0,61.927,48.433V81.022A10.187,10.187,0,0,0,72.114,91.209H104.7a10.187,10.187,0,0,0,10.187-10.187V50.81Z" transform="translate(0 3.604)" fill="#231f20"/>
      <path id="Path_15" data-name="Path 15" d="M107.795,38.752a1.729,1.729,0,0,0-1.759-1.659l-9.3.2c-.936.017-1.143.559-.463,1.2L98.4,40.5l.052.052-.017.017q-9.908,9.947-19.812,19.894c-.472.472-.949.944-1.559,1.551,0,0-3.8-4.552-3.864-4.635a2.118,2.118,0,0,0-3.223-.619c-.983.663-1.966,1.338-2.945,2.01-1.477,1.009-1.689,2.075-.684,3.539.169.251,6.969,9,6.969,9,.139.2.282.394.437.58,1.52,1.832,3.461,1.945,5.146.26q12.851-12.89,25.689-25.8l.243.234,2.1,1.984c.68.641,1.2.4,1.174-.528Z" transform="translate(12.666)" fill="#f69320"/>
    </g>
  </g>
</svg>
